<?xml version="1.0" encoding="UTF-8"?>
<!DOCTYPE svg PUBLIC "-//W3C//DTD SVG 1.1//EN" "http://www.w3.org/Graphics/SVG/1.1/DTD/svg11.dtd">
<!-- Creator: CorelDRAW 2021 (64-Bit) -->
<svg xmlns="http://www.w3.org/2000/svg" xml:space="preserve" width="115.139mm" height="145.608mm" version="1.1" style="shape-rendering:geometricPrecision; text-rendering:geometricPrecision; image-rendering:optimizeQuality; fill-rule:evenodd; clip-rule:evenodd"
viewBox="0 0 3684.83 4659.93"
 xmlns:xlink="http://www.w3.org/1999/xlink"
 xmlns:xodm="http://www.corel.com/coreldraw/odm/2003">
 <defs>
  <style type="text/css">
   <![CDATA[
    .fil0 {fill:#2B2A29}
   ]]>
  </style>
 </defs>
 <g id="Warstwa_x0020_1">
  <metadata id="CorelCorpID_0Corel-Layer"/>
  <g id="_2362213788464">
   <path class="fil0" d="M2109.62 3149.28c-19.73,2.23 -39.43,4.19 -59,5.82 -20.29,1.67 -39.9,2.99 -58.76,3.99 -18.78,1 -38.31,1.71 -58.6,2.15 -19.37,0.44 -38.95,0.56 -58.68,0.4 -20.49,-0.16 -40.5,-0.64 -59.96,-1.36 -21.33,-0.84 -41.42,-1.87 -60.24,-3.15 -19.53,-1.32 -39.67,-2.99 -60.36,-4.98 -20.25,-1.95 -40.5,-4.22 -60.8,-6.78 -20.97,-2.63 -41.26,-5.5 -60.84,-8.49 -19.25,-2.99 -39.71,-6.46 -61.27,-10.4 -21.85,-4.03 -42.3,-8.01 -61.27,-12.04 -20.49,-4.35 -40.98,-8.97 -61.35,-13.84 -20.37,-4.86 -40.71,-10.05 -60.96,-15.47 -18.5,-4.98 -38.63,-10.68 -60.44,-17.18 -21.57,-6.42 -41.34,-12.6 -59.2,-18.46 -18.82,-6.14 -38.07,-12.8 -57.77,-19.89 -19.65,-7.1 -38.51,-14.19 -56.53,-21.29 -17.14,-6.78 -35.64,-14.39 -55.49,-22.92 -19.97,-8.57 -38.11,-16.66 -54.3,-24.2 -17.42,-8.09 -35.04,-16.66 -52.82,-25.6 -16.63,-8.41 -33.61,-17.3 -50.83,-26.71 -15.99,-8.69 -32.61,-18.14 -49.87,-28.3 -17.5,-10.29 -33.77,-20.21 -48.76,-29.66 -14.95,-9.45 -30.9,-19.93 -47.84,-31.41 -16.51,-11.2 -32.13,-22.17 -46.8,-32.81 -15.43,-11.24 -30.66,-22.68 -45.6,-34.29 -15.47,-12.04 -30.42,-24.04 -44.73,-35.92 -14.43,-12 -28.94,-24.48 -43.53,-37.35 -14.55,-12.87 -28.74,-25.83 -42.62,-38.83 -14.31,-13.39 -27.95,-26.51 -40.87,-39.35 -12.92,-12.79 -25.91,-26.11 -38.99,-39.9 -11.52,-12.12 -24,-25.71 -37.43,-40.74 -12.52,-13.99 -24.44,-27.75 -35.68,-41.18 -12.28,-14.59 -23.6,-28.5 -34.01,-41.74 -11.2,-14.31 -21.93,-28.43 -32.13,-42.34 -9.93,-13.56 -20.05,-27.87 -30.34,-42.94 -9.81,-14.35 -19.45,-29.02 -28.9,-43.97 -9.53,-15.03 -18.66,-29.98 -27.31,-44.73 -8.85,-15.07 -17.5,-30.38 -25.87,-45.84 -8.13,-15.03 -16.26,-30.62 -24.32,-46.72 -7.85,-15.75 -15.43,-31.61 -22.76,-47.56 -7.22,-15.83 -14.31,-32.01 -21.21,-48.52 -7.22,-17.22 -13.79,-33.65 -19.69,-49.2 -5.86,-15.47 -11.88,-32.21 -18.02,-50.15 -6.18,-18.1 -11.68,-35.01 -16.38,-50.71 -5.1,-16.82 -9.81,-33.65 -14.19,-50.39 -4.38,-16.94 -8.45,-33.89 -12.16,-50.83 -3.47,-15.83 -6.86,-32.77 -10.09,-50.87 -3.27,-18.3 -6.02,-35.36 -8.21,-51.11 -2.35,-17.02 -4.35,-33.93 -5.98,-50.71 -1.51,-15.63 -2.83,-32.57 -3.87,-50.83 -0.92,-16.34 -1.51,-33.29 -1.83,-50.87 -0.24,-17.22 -0.2,-34.37 0.24,-51.39 0.4,-17.86 1.16,-35.04 2.23,-51.55 1.04,-16.58 2.51,-33.84 4.35,-51.67 1.8,-17.34 3.99,-34.72 6.46,-52.1 2.59,-18.14 5.42,-35.52 8.45,-52.22 3.31,-18.18 6.78,-35.52 10.45,-51.95 3.83,-17.34 8.01,-34.72 12.56,-52.14 4.5,-17.34 9.41,-34.77 14.59,-52.15 4.82,-16.02 10.32,-33.25 16.58,-51.7 6.14,-18.06 12.2,-35.04 18.22,-50.87 6.26,-16.47 12.95,-33.13 20.05,-49.87 7.05,-16.74 14.35,-33.09 21.77,-48.99 7.1,-15.23 14.95,-31.18 23.48,-47.8 8.41,-16.34 16.82,-32.01 25.28,-47.04 8.77,-15.63 17.74,-30.86 26.83,-45.73 8.89,-14.51 18.46,-29.42 28.67,-44.73 9.65,-14.47 19.65,-28.86 29.98,-43.13 10.09,-13.95 20.73,-28.07 31.85,-42.3 11.76,-14.99 22.97,-28.86 33.69,-41.54 11.08,-13.11 22.89,-26.59 35.44,-40.42 12,-13.2 24.4,-26.35 37.15,-39.43 12.12,-12.44 25.16,-25.31 39.03,-38.55 14.15,-13.52 27.71,-26.07 40.7,-37.67 14.11,-12.6 28.23,-24.75 42.3,-36.48 13.76,-11.48 28.27,-23.2 43.49,-35.12 14.43,-11.36 29.26,-22.65 44.45,-33.81 15.27,-11.28 30.38,-22.09 45.41,-32.49 15.95,-11.04 31.33,-21.37 46.08,-30.98 14.11,-9.17 29.86,-19.02 47.2,-29.54 17.46,-10.6 33.41,-20.01 47.76,-28.14 15.47,-8.77 31.69,-17.62 48.67,-26.59 15.47,-8.17 32.05,-16.58 49.71,-25.23 17.66,-8.65 34.92,-16.78 51.71,-24.44 16.58,-7.53 34.13,-15.19 52.54,-22.92 17.54,-7.34 35.44,-14.55 53.66,-21.61 20.05,-7.78 38.11,-14.47 54.1,-20.13 16.23,-5.74 34.64,-11.96 55.17,-18.58 19.73,-6.38 38.39,-12.12 55.89,-17.26 18.3,-5.34 37.15,-10.56 56.57,-15.67 18.5,-4.86 37.67,-9.61 57.45,-14.24 19.26,-4.5 38.39,-8.69 57.41,-12.52 19.45,-3.95 38.79,-7.53 57.89,-10.76 18.73,-3.15 38.27,-6.18 58.52,-8.97 21.13,-2.91 40.74,-5.38 58.76,-7.3 20.09,-2.15 39.82,-3.98 59.24,-5.5 18.54,-1.43 38.55,-2.63 59.88,-3.67 19.29,-0.88 39.31,-1.56 60,-1.91 20.01,-0.32 40.14,-0.4 60.36,-0.16 20.61,0.2 40.66,0.76 60.12,1.52 21.25,0.88 41.3,1.99 60.2,3.27 19.81,1.4 40.03,3.11 60.56,5.14 19.97,1.96 40.26,4.27 60.8,6.86 21.01,2.67 41.34,5.54 60.92,8.57 19.25,2.99 39.71,6.5 61.24,10.45 21.8,3.98 42.26,8.01 61.19,12.04 20.45,4.3 40.86,8.93 61.19,13.79 20.13,4.82 40.19,9.92 60.16,15.27 18.14,4.9 37.95,10.52 59.4,16.9 21.33,6.38 40.82,12.44 58.44,18.22 18.66,6.14 37.71,12.72 57.25,19.77 19.5,7.02 38.23,14.07 56.09,21.09 17.02,6.7 35.44,14.31 55.17,22.76 19.02,8.14 37.04,16.19 53.98,24.04 18.3,8.49 35.84,16.94 52.66,25.39 15.91,8.01 33.21,17.06 51.83,27.15l0.04 -0.08c16.15,8.73 33.09,18.3 50.87,28.62 16.26,9.49 32.77,19.5 49.43,29.9 16.39,10.24 32.49,20.69 48.32,31.33 16.42,11 32.09,21.89 46.96,32.61 15.19,10.92 30.34,22.2 45.49,33.89 15.35,11.84 30.06,23.56 44.09,35.16 14.11,11.64 28.3,23.76 42.58,36.4 14.27,12.6 28.19,25.28 41.78,38.03 12.95,12.16 26.35,25.15 40.22,38.95l0.04 -0.04c12.96,12.87 25.91,26.19 38.87,39.9 12.76,13.56 25.24,27.19 37.4,40.86 11.68,13.16 23.64,27.07 35.84,41.74 11.32,13.6 22.8,27.83 34.4,42.7 12.24,15.67 23.24,30.18 32.93,43.45 10.25,13.99 20.65,28.78 31.26,44.25 9.92,14.59 19.77,29.54 29.42,44.73 9.69,15.23 18.94,30.38 27.79,45.41 9.45,15.99 18.22,31.41 26.27,46.16 8.17,14.99 16.35,30.58 24.48,46.72l0 0.12c7.89,15.71 15.51,31.57 22.88,47.6 7.53,16.26 14.59,32.29 21.17,47.92 6.9,16.34 13.39,32.61 19.53,48.72 5.78,15.19 11.72,31.65 17.78,49.31 6.1,17.82 11.48,34.53 16.11,50.03 4.9,16.3 9.57,33.01 13.95,50.11 4.35,16.86 8.37,33.73 12,50.51 3.43,15.91 6.74,32.89 9.89,50.91 3.23,18.38 5.9,35.48 8.01,51.27 2.31,17.14 4.27,34.16 5.86,50.99 1.51,15.95 2.75,33.09 3.71,51.31 0.92,16.63 1.48,33.85 1.72,51.59 0.24,17.22 0.16,34.37 -0.28,51.35 -0.48,17.94 -1.24,35.12 -2.31,51.62 -1.12,16.58 -2.59,33.85 -4.46,51.63 -1.83,17.38 -3.99,34.76 -6.5,52.15 -2.59,18.14 -5.46,35.56 -8.49,52.22 -3.35,18.22 -6.82,35.52 -10.48,51.94 -3.83,17.3 -8.01,34.69 -12.56,52.07 -4.51,17.38 -9.41,34.77 -14.59,52.1 -4.78,15.99 -10.29,33.13 -16.5,51.47 -6.1,18.02 -12.16,34.88 -18.14,50.63 -6.26,16.47 -12.92,33.05 -19.97,49.75 -7.06,16.71 -14.27,32.97 -21.69,48.84 -7.06,15.15 -14.87,31.02 -23.36,47.64 -7.98,15.51 -16.39,31.17 -25.2,46.88 -8.81,15.71 -17.78,30.98 -26.83,45.81 -9.65,15.79 -19.09,30.7 -28.38,44.65 -9.81,14.75 -19.93,29.38 -30.34,43.85 -10.76,14.95 -21.45,29.26 -32.01,42.81 -10.01,12.92 -21.25,26.79 -33.69,41.62 -11.96,14.23 -23.76,27.79 -35.4,40.71 -11.92,13.23 -24.28,26.39 -37,39.5 -12.92,13.32 -25.79,26.15 -38.63,38.47 -12.92,12.4 -26.35,24.84 -40.26,37.28 -13.87,12.4 -27.83,24.44 -41.74,36.08 -13.67,11.36 -28.03,22.92 -43.05,34.68 -14.43,11.28 -29.22,22.49 -44.29,33.57 -15.27,11.2 -30.42,21.97 -45.41,32.29 -15.03,10.33 -30.54,20.65 -46.48,30.9 -15.83,10.21 -31.69,20.09 -47.52,29.62 -16.15,9.73 -32.33,19.13 -48.44,28.14 -17.62,9.93 -34.21,18.94 -49.68,27.03 -16.78,8.77 -33.61,17.26 -50.35,25.39l-0.04 -0.08c-16.31,7.9 -33.09,15.75 -50.35,23.48 -18.22,8.17 -35.44,15.63 -51.63,22.33 -17.3,7.18 -34.92,14.15 -52.9,21.01 -18.14,6.9 -36.16,13.47 -53.94,19.69 -18.3,6.38 -36.72,12.52 -55.18,18.42 -17.9,5.7 -36.71,11.4 -56.41,17.14 -18.7,5.38 -37.87,10.69 -57.53,15.83 -20.17,5.26 -39.67,10.13 -58.44,14.55 -19.65,4.62 -39.23,8.93 -58.72,12.92 -19.65,3.99 -39.19,7.7 -58.6,11.08 -18.62,3.23 -38.15,6.34 -58.64,9.25 -19.1,2.75 -38.63,5.26 -58.64,7.5zm-939.09 -258.29c8.57,4.67 17.3,9.33 26.15,13.87 8.25,4.3 16.98,8.69 26.07,13.16 7.81,3.87 16.54,8.01 26.11,12.44 7.58,3.51 16.5,7.5 26.71,11.92 11.2,4.9 20.25,8.77 27.19,11.6 8.25,3.35 17.26,6.94 27.19,10.76 9.37,3.59 18.66,7.06 27.87,10.33 10.05,3.63 19.26,6.82 27.63,9.61 9.81,3.27 19.18,6.34 28.15,9.09 8.41,2.59 17.86,5.42 28.34,8.41 8.25,2.39 17.78,4.98 28.59,7.82 8.69,2.31 18.34,4.7 28.9,7.22l33.97 7.81 16.9 3.47 17.42 3.39 17.02 3.11 17.38 2.99 17.54 2.75 17.3 2.59 17.74 2.31 17.66 2.19 17.78 1.91 17.94 1.8 17.66 1.56 17.78 1.27 18.26 1.2 18.5 1.04c16.47,0.44 32.77,0.6 48.88,0.52 15.87,-0.08 32.17,-0.44 48.92,-1.08 15.03,-0.56 31.17,-1.44 48.36,-2.63 16.1,-1.16 32.17,-2.51 48.08,-4.14 15.51,-1.59 31.37,-3.51 47.56,-5.74 16.15,-2.19 31.77,-4.58 46.8,-7.18 15.59,-2.67 31.06,-5.58 46.29,-8.73 14.43,-2.99 29.74,-6.46 45.81,-10.37 15.83,-3.83 30.9,-7.74 45.17,-11.76 14.99,-4.19 29.9,-8.65 44.69,-13.35 15.79,-5.02 30.54,-10 44.25,-14.87 13.4,-4.78 28.03,-10.33 43.77,-16.58 14.31,-5.66 28.75,-11.68 43.29,-18.06 15.83,-6.9 30.1,-13.4 42.82,-19.5 13.47,-6.46 27.55,-13.51 42.18,-21.13 14.27,-7.42 28.19,-14.99 41.78,-22.68 14.35,-8.09 27.87,-16.02 40.58,-23.72 12,-7.26 25.28,-15.63 39.79,-25.03 13.84,-8.97 26.79,-17.66 38.91,-26.03 11.88,-8.29 24.48,-17.3 37.67,-27.11 13.6,-10.05 25.87,-19.45 36.84,-28.15 11.48,-9.09 23.44,-18.82 35.76,-29.26 11.92,-10.05 23.48,-20.13 34.72,-30.26 11.16,-10.05 22.41,-20.49 33.73,-31.33 11.48,-11.08 22.37,-21.85 32.61,-32.29 10.84,-11.08 21.37,-22.21 31.57,-33.33 10.16,-11.08 20.41,-22.65 30.74,-34.61 9.57,-11.08 19.53,-23.08 29.94,-35.92 10.29,-12.68 20.01,-25.08 29.22,-37.2 10.32,-13.55 19.73,-26.27 28.23,-38.15 9.01,-12.56 18.14,-25.75 27.39,-39.55 9.65,-14.31 18.5,-27.87 26.55,-40.66 3.63,-5.74 7.89,-12.68 12.87,-20.85 3.51,-5.7 7.85,-13 12.88,-21.57 4.38,-7.42 8.57,-14.67 12.6,-21.73l0 -0.08c4.07,-7.22 8.06,-14.31 11.88,-21.37 4.94,-8.93 8.93,-16.39 11.92,-22.05 3.51,-6.78 7.22,-13.95 11.08,-21.65 3.27,-6.54 6.86,-13.87 10.72,-21.93 4.54,-9.53 8.05,-16.94 10.48,-22.29 2.71,-5.86 5.9,-13.11 9.69,-21.8 3.47,-7.93 6.7,-15.51 9.73,-22.81 2.35,-5.66 5.38,-13.16 9.05,-22.44 3.51,-8.89 6.46,-16.5 8.85,-22.92 3.19,-8.53 6.02,-16.18 8.37,-22.84 1.75,-4.99 4.46,-12.76 7.97,-23.2 2.79,-8.41 5.38,-16.27 7.69,-23.52l0 -0.08c2.67,-8.37 5.1,-16.26 7.3,-23.52 2.27,-7.7 4.5,-15.35 6.62,-22.97 2.11,-7.49 4.22,-15.23 6.3,-23.12 1.99,-7.57 3.95,-15.39 5.9,-23.32 2.55,-10.37 4.35,-17.9 5.54,-23.04 1.51,-6.7 3.19,-14.35 5.02,-23.08 1.35,-6.54 2.95,-14.35 4.7,-23.48 1.99,-10.2 3.47,-18.06 4.47,-23.56 0.96,-5.46 2.31,-13.43 3.95,-23.6 1.67,-9.97 2.91,-18.06 3.83,-24.16 0.76,-5.02 1.87,-13.31 3.39,-24.6 1.35,-10.32 2.39,-18.46 3.15,-24.8 1.16,-9.77 2.07,-17.74 2.75,-24.12l2.27 -24.16c0.88,-9.45 1.59,-17.7 2.11,-24.76l1.83 -24.91c0.6,-9.13 1.08,-17.3 1.48,-24.48l0.04 -1.08c0.56,-17.06 0.84,-33.93 0.84,-50.55 0.04,-16.78 -0.2,-33.77 -0.64,-50.91 -0.44,-16.19 -1.16,-32.93 -2.11,-50.27 -0.88,-15.55 -2.07,-32.17 -3.63,-49.91 -1.48,-17.3 -3.15,-33.73 -4.94,-49.12 -1.96,-16.58 -4.07,-32.73 -6.42,-48.36 -2.31,-15.71 -4.94,-31.57 -7.85,-47.6 -2.79,-15.31 -5.94,-31.06 -9.41,-47.32 -3.59,-16.66 -7.18,-32.21 -10.76,-46.6 -3.39,-13.63 -7.53,-28.98 -12.44,-46.16 -4.38,-15.47 -9.01,-30.7 -13.79,-45.61 -5.14,-16.1 -10.21,-31.01 -15.07,-44.65 -5.06,-14.11 -10.61,-28.78 -16.66,-44.05 -5.78,-14.59 -11.8,-29.06 -18.06,-43.42 -6.34,-14.55 -12.84,-28.78 -19.45,-42.66 -6.62,-13.87 -13.64,-27.87 -20.97,-41.98 -7.85,-15.15 -15.31,-29.02 -22.4,-41.74 -7.06,-12.6 -14.95,-26.19 -23.72,-40.79 -8.77,-14.55 -17.02,-27.9 -24.76,-39.94 -8.25,-12.84 -16.9,-25.79 -25.91,-38.83 -8.89,-12.92 -17.9,-25.52 -26.95,-37.83 -8.37,-11.32 -17.78,-23.64 -28.22,-36.92 -10.21,-12.96 -19.93,-24.96 -29.18,-35.96 -9.41,-11.16 -19.49,-22.76 -30.22,-34.72 -10.24,-11.4 -20.69,-22.65 -31.25,-33.69 -11.32,-11.8 -22.05,-22.68 -32.17,-32.57 -10.16,-9.97 -21.33,-20.49 -33.45,-31.62 -11.24,-10.32 -22.76,-20.53 -34.53,-30.66 -11.2,-9.61 -23.08,-19.49 -35.6,-29.58 -12.32,-9.89 -24.56,-19.45 -36.68,-28.62 -13.4,-10.13 -25.95,-19.34 -37.67,-27.63 -12.2,-8.61 -25.12,-17.46 -38.75,-26.47 -7.53,-4.98 -15.99,-10.4 -25.28,-16.26 -9.33,-5.9 -17.82,-11.16 -25.43,-15.71 -9.09,-5.46 -17.7,-10.53 -25.71,-15.11 -8.85,-5.06 -17.46,-9.84 -25.75,-14.35 -8.49,-4.62 -17.18,-9.25 -26.11,-13.79 -8.25,-4.27 -17.1,-8.69 -26.47,-13.24 -9.13,-4.46 -17.98,-8.65 -26.47,-12.52 -7.69,-3.55 -16.66,-7.54 -26.91,-11.96 -8.45,-3.67 -17.42,-7.42 -26.87,-11.28 -9.61,-3.87 -18.7,-7.45 -27.23,-10.72 -10.21,-3.87 -19.42,-7.29 -27.51,-10.16 -7.34,-2.63 -16.62,-5.78 -27.79,-9.49l-0.12 0c-12.76,-4.22 -22.21,-7.29 -28.31,-9.21l-0.04 0.12c-12.04,-3.75 -21.37,-6.54 -28.03,-8.41 -9.01,-2.59 -18.54,-5.18 -28.55,-7.77 -8.01,-2.12 -17.78,-4.55 -29.3,-7.3l-17.34 -4.07 -16.9 -3.79 -16.98 -3.55 -17.1 -3.35 -17.18 -3.27 -17.02 -2.91 -17.3 -2.75 -17.02 -2.63 -17.74 -2.39 -17.5 -2.27 -17.74 -1.95 -17.94 -1.88 -17.78 -1.64 -18.06 -1.32 -18.38 -1.27 -18.58 -1.08c-16.34,-0.28 -32.69,-0.32 -48.96,-0.08 -15.71,0.2 -32.01,0.68 -48.91,1.44 -14.87,0.64 -30.98,1.64 -48.32,2.95 -16.23,1.24 -32.33,2.71 -48.16,4.42 -17.3,1.83 -33.13,3.79 -47.4,5.78 -14.63,2.07 -30.3,4.54 -46.96,7.45 -15.11,2.63 -30.54,5.58 -46.21,8.85 -14.87,3.07 -30.14,6.54 -45.81,10.37l-0.04 -0.08c-14.23,3.47 -29.42,7.46 -45.57,11.96 -15.11,4.23 -30.1,8.69 -44.93,13.4 -14.27,4.51 -29.07,9.49 -44.37,14.87 -15.83,5.62 -30.46,11.04 -43.89,16.35 -14.19,5.58 -28.54,11.48 -42.98,17.74 -14.23,6.14 -28.46,12.6 -42.62,19.34 -14.03,6.62 -27.99,13.51 -41.74,20.65 -14.99,7.74 -28.7,15.11 -41.06,22.05 -11.64,6.5 -24.99,14.31 -40.03,23.36 -13.47,8.13 -26.67,16.42 -39.58,24.75 -13.79,8.93 -26.67,17.54 -38.71,25.87 -11.92,8.25 -24.48,17.3 -37.71,27.11 -13.55,10.05 -25.87,19.45 -36.88,28.15 -11.56,9.17 -23.56,19.02 -35.96,29.46 -12.04,10.16 -23.72,20.37 -35.08,30.58 -11.24,10.17 -22.6,20.73 -34.01,31.65 -11.48,11.04 -22.36,21.81 -32.57,32.21 -10.84,11.12 -21.41,22.28 -31.61,33.41 -10.17,11.08 -20.41,22.6 -30.74,34.56 -9.53,11.08 -19.53,23.08 -29.94,35.96 -10.29,12.68 -20.05,25.12 -29.3,37.24 -10.29,13.55 -19.69,26.27 -28.19,38.15 -9.01,12.56 -18.14,25.75 -27.39,39.55 -9.65,14.31 -18.46,27.87 -26.55,40.63 -3.63,5.78 -7.98,12.79 -13,21.05 -3.47,5.7 -7.74,12.84 -12.76,21.37 -4.22,7.18 -8.37,14.31 -12.36,21.37 -3.15,5.54 -7.18,12.79 -12.08,21.81 -5.78,10.52 -9.77,17.98 -11.92,22.04 -3.59,6.78 -7.26,14 -11.12,21.65 -3.27,6.58 -6.9,13.92 -10.76,22.01 -2.95,6.22 -6.42,13.59 -10.32,22.2l-0.08 0.08c-3.27,7.1 -6.5,14.35 -9.73,21.73l0 0.08c-2.43,5.62 -5.66,13.27 -9.57,22.72l-0.12 0c-2.35,5.66 -5.42,13.2 -9.09,22.49 -3.47,8.85 -6.42,16.47 -8.81,22.84 -3.23,8.57 -6.02,16.23 -8.37,22.84 -1.79,4.98 -4.43,12.76 -7.97,23.28 -2.47,7.34 -5.06,15.23 -7.74,23.64 -2.31,7.26 -4.74,15.07 -7.26,23.44 -2.31,7.74 -4.54,15.43 -6.7,23.08 -2.07,7.49 -4.19,15.19 -6.22,23 -1.99,7.61 -3.99,15.43 -5.94,23.4 -2.71,10.96 -4.54,18.66 -5.5,22.89l0 0.08c-1.52,6.66 -3.19,14.35 -5.02,23.08 -1.35,6.46 -2.95,14.27 -4.74,23.48 -1.95,10.25 -3.43,18.06 -4.43,23.56 -1,5.46 -2.31,13.43 -3.98,23.6 -1.64,10.08 -2.95,18.22 -3.83,24.32 -0.76,5.14 -1.88,13.12 -3.39,24.44 -1.32,10.01 -2.39,18.38 -3.15,24.76 -1.2,10.01 -2.12,18.14 -2.71,24.04l-2.31 24.08 -2.11 24.91c-0.72,9.13 -1.32,17.5 -1.8,24.96l-1.51 24.6c-0.56,17.34 -0.88,34.4 -0.92,51.19 -0.04,16.86 0.12,33.89 0.56,50.99 0.44,16.07 1.12,32.77 2.11,50.07 0.88,15.55 2.07,32.13 3.59,49.79 1.52,17.3 3.19,33.69 5.02,49.12 1.91,16.23 4.06,32.29 6.46,48.16 2.35,15.71 5.02,31.57 7.97,47.64 2.79,15.19 5.98,30.94 9.53,47.2 3.63,16.63 7.26,32.13 10.88,46.48 3.95,15.59 8.09,30.85 12.4,45.84 4.43,15.23 9.05,30.34 13.92,45.29 4.62,14.11 9.77,29.1 15.55,44.93 5.78,15.99 11.4,30.78 16.86,44.37 5.46,13.59 11.64,28.22 18.54,43.85 6.14,13.95 12.79,28.38 19.93,43.21 7.58,15.75 14.67,29.94 21.25,42.54 7.46,14.27 15.07,28.3 22.81,42.1 7.06,12.64 15.03,26.31 23.92,41.14 8.77,14.63 17.06,28.03 24.8,40.06l0.12 0c8.85,13.84 17.46,26.83 25.79,38.95 8.25,12.04 17.18,24.6 26.79,37.72 9.97,13.63 19.21,25.87 27.59,36.56 8.17,10.48 17.74,22.24 28.67,35.28 10,12 19.89,23.48 29.7,34.45 10.37,11.64 20.69,22.84 30.9,33.53 10.21,10.72 20.93,21.61 32.17,32.65 11.28,11.12 22.41,21.69 33.29,31.69 11.2,10.33 22.6,20.53 34.21,30.5 12.24,10.6 24.04,20.45 35.36,29.58l0.04 -0.04c12.28,9.93 24.48,19.45 36.6,28.62 13.36,10.13 25.91,19.34 37.59,27.63 12.24,8.65 25.16,17.5 38.83,26.55 7.42,4.94 15.75,10.33 25,16.15 7.85,4.98 16.42,10.29 25.63,15.83 9.25,5.58 17.86,10.64 25.71,15.19 8.77,5.02 17.34,9.85 25.63,14.35z"/>
   <path class="fil0" d="M1550.74 4371.22c0.24,208.94 224.01,361.54 433.42,252.47 25.79,-13.43 56.21,-38.15 71.28,-54.85 20.53,-22.76 35.08,-42.86 51.75,-75.91 30.02,-59.68 35.96,-141.49 12.4,-209.78 -19.1,-55.38 -58.12,-114.38 -92.57,-161.1 -60.95,-82.64 -141.37,-195.46 -175.05,-298.72 -2.31,-7.06 -5.22,-19.61 -9.53,-23.8l-14.87 40.11c-22.01,50.67 -23.84,56.97 -52.23,109.23 -20.61,37.87 -59.88,94.88 -85.59,129.72 -26.15,35.52 -67.13,91.97 -87.63,127.65 -26.75,46.56 -51.43,99.19 -51.39,164.97z"/>
   <path class="fil0" d="M1615.09 3094.91c15.71,26.15 33.13,51.23 49.51,73.43 58.8,79.73 136.38,188.57 168.87,288.19 2.23,6.82 5.02,18.9 9.21,22.92l14.35 -38.67c21.21,-48.88 22.97,-54.98 50.39,-105.37 19.85,-36.56 57.77,-91.57 82.52,-125.18 23.32,-31.65 58.92,-80.61 79.77,-115.01 -67.89,35.44 -145.11,55.53 -227.04,55.53 -82.12,0 -159.55,-20.17 -227.59,-55.85z"/>
  </g>
 </g>
</svg>
