<?xml version="1.0" encoding="UTF-8"?>
<!DOCTYPE svg PUBLIC "-//W3C//DTD SVG 1.1//EN" "http://www.w3.org/Graphics/SVG/1.1/DTD/svg11.dtd">
<!-- Creator: CorelDRAW 2021 (64-Bit) -->
<svg xmlns="http://www.w3.org/2000/svg" xml:space="preserve" width="338.675mm" height="117.08mm" version="1.1" style="shape-rendering:geometricPrecision; text-rendering:geometricPrecision; image-rendering:optimizeQuality; fill-rule:evenodd; clip-rule:evenodd"
viewBox="0 0 14582.45 5041.18"
 xmlns:xlink="http://www.w3.org/1999/xlink"
 xmlns:xodm="http://www.corel.com/coreldraw/odm/2003">
 <defs>
  <style type="text/css">
   <![CDATA[
    .fil0 {fill:#2B2A29}
   ]]>
  </style>
 </defs>
 <g id="Warstwa_x0020_1">
  <metadata id="CorelCorpID_0Corel-Layer"/>
  <path class="fil0" d="M6503.87 2191.24l-1641.27 0 815.22 -1882.28c20.15,36.41 161.16,356.45 423.86,958.57l402.19 923.71zm1032.93 1128.25l0 0 -34.1 -11.65c-22.48,-6.19 -51.91,-22.48 -88.35,-47.29 -36.41,-24.76 -75.18,-65.86 -118.53,-120.08 -42.63,-52.69 -83.7,-125.51 -124.75,-216.19l-1014.36 -2347.22c-65.86,-158.82 -124.75,-276.63 -175.14,-356.45 -49.6,-79.82 -92.99,-131.73 -129.4,-156.54l-410.72 0 27.12 13.2c17.84,9.28 43.41,27.91 75.18,57.34 29.43,29.46 65.86,69.72 104.6,127.11l-1146.88 2654.03c-41.05,90.68 -81.37,162.71 -124.75,217.74 -43.38,54.22 -84.46,95.32 -120.11,120.14 -38.74,27.12 -68.2,45.69 -91.44,51.91l-35.65 13.95 442.48 0 -11.65 -6.98c-22.45,-10.86 -41.05,-29.46 -51.91,-58.89 -13.95,-27.15 -20.9,-56.61 -20.9,-88.38 0,-68.17 20.9,-152.66 63.53,-251.86l292.92 -676.46 1677.68 0 290.61 667.2c41.05,102.3 63.53,176.69 65.86,224.69l0 36.44c0,22.45 -2.33,42.65 -6.22,61.22 -4.64,17.84 -11.62,34.07 -18.6,44.93 -9.29,13.96 -17.81,23.27 -27.12,30.25 -9.29,6.19 -15.47,10.86 -22.45,13.14l-9.31 4.7 742.35 0z"/>
  <path class="fil0" d="M155.11 0l3208.16 3319.49 0 -0.03 0 0.03 -3208.16 -3319.49zm3165.67 3255.91l0 0 0 -2846.25c0,-70.51 8.33,-131.76 22.48,-181.28 13.76,-48.11 29.46,-88.38 50.36,-117.83 17.84,-30.19 35.65,-52.67 56.58,-68.17 17.81,-16.26 34.1,-25.6 47.26,-29.43l20.93 -9.31 -443.27 0 20.93 9.31c13.17,3.83 29.46,13.17 49.6,29.43 18.6,15.5 36.41,40.26 56.56,69.72 20.93,31.77 36.99,72.73 50.39,120.93 13.73,49.43 20.14,110.77 20.14,185.97l0 2765.03 48.03 71.88 -30.16 -11.96c-20.88,-6.58 -54.75,-26.67 -98.81,-55.88 -124.19,-84.35 -208.43,-198.8 -299.64,-314.5 -662.64,-840.51 -1516.24,-1922.2 -2178.55,-2755.29 -17.24,-21.69 -32.41,-39.92 -45.41,-54.75l-470.62 0 0 2846.25c0,70.54 -8.33,131.76 -22.48,181.33 -13.73,48.08 -29.43,88.35 -50.36,117.81 -17.84,30.19 -35.65,52.64 -56.58,68.14 -17.81,16.29 -34.1,25.6 -47.27,29.49l-20.9 9.26 443.25 0 -20.93 -9.26c-13.17,-3.88 -29.43,-13.2 -49.57,-29.49 -18.6,-15.5 -36.44,-40.26 -56.58,-69.72 -20.93,-31.77 -36.97,-72.7 -50.36,-120.9 -13.73,-49.4 -20.15,-110.8 -20.15,-185.97l0 -2765 -48.06 -71.94 26.25 13.25c258.06,129.87 2015.19,2446.48 2295.95,2810.97l283.52 368.15 517.46 0z"/>
  <path class="fil0" d="M9510.95 2293.54c-13.93,1.58 -27.83,2.95 -41.64,4.11 -14.32,1.18 -28.16,2.14 -41.47,2.84 -13.25,0.7 -27.04,1.21 -41.36,1.52 -13.68,0.28 -27.49,0.39 -41.42,0.25 -14.46,-0.08 -28.59,-0.42 -42.31,-0.93 -15.05,-0.62 -29.24,-1.32 -42.51,-2.23 -13.79,-0.96 -28,-2.14 -42.6,-3.51 -14.29,-1.38 -28.59,-3.01 -42.91,-4.78 -14.8,-1.86 -29.12,-3.91 -42.93,-5.99 -13.59,-2.14 -28.03,-4.56 -43.25,-7.37 -15.42,-2.81 -29.85,-5.65 -43.24,-8.47 -14.46,-3.1 -28.92,-6.36 -43.3,-9.79 -14.38,-3.4 -28.73,-7.09 -43.02,-10.89 -13.06,-3.54 -27.26,-7.54 -42.66,-12.12 -15.22,-4.56 -29.18,-8.92 -41.78,-13.06 -13.28,-4.31 -26.87,-9.03 -40.77,-14.01 -13.87,-5.04 -27.18,-10.02 -39.9,-15.05 -12.1,-4.78 -25.15,-10.13 -39.17,-16.18 -14.1,-6.02 -26.9,-11.76 -38.32,-17.05 -12.29,-5.74 -24.73,-11.76 -37.28,-18.06 -11.73,-5.94 -23.72,-12.21 -35.87,-18.85 -11.29,-6.14 -23.01,-12.8 -35.2,-19.98 -12.35,-7.26 -23.83,-14.26 -34.41,-20.93 -10.55,-6.7 -21.8,-14.07 -33.77,-22.2 -11.65,-7.88 -22.67,-15.64 -33.03,-23.16 -10.89,-7.91 -21.64,-16.01 -32.19,-24.17 -10.92,-8.5 -21.47,-16.99 -31.57,-25.35 -10.18,-8.5 -20.43,-17.3 -30.72,-26.39 -10.27,-9.06 -20.29,-18.2 -30.08,-27.38 -10.1,-9.48 -19.72,-18.71 -28.84,-27.77 -9.12,-9.03 -18.29,-18.45 -27.52,-28.19 -8.13,-8.53 -16.94,-18.12 -26.42,-28.75 -8.84,-9.88 -17.24,-19.58 -25.18,-29.06 -8.67,-10.27 -16.65,-20.12 -24,-29.46 -7.91,-10.07 -15.47,-20.06 -22.68,-29.85 -7.01,-9.59 -14.15,-19.69 -21.41,-30.3 -6.92,-10.16 -13.73,-20.51 -20.4,-31.06 -6.72,-10.58 -13.17,-21.13 -19.27,-31.54 -6.24,-10.67 -12.35,-21.44 -18.26,-32.36 -5.74,-10.64 -11.48,-21.61 -17.16,-32.97 -5.55,-11.14 -10.89,-22.31 -16.07,-33.59 -5.09,-11.14 -10.1,-22.57 -14.97,-34.24 -5.09,-12.13 -9.74,-23.72 -13.9,-34.72 -4.13,-10.92 -8.38,-22.7 -12.71,-35.39 -4.36,-12.78 -8.25,-24.68 -11.57,-35.76 -3.6,-11.9 -6.92,-23.78 -10.02,-35.57 -3.1,-11.96 -5.97,-23.94 -8.58,-35.9 -2.45,-11.17 -4.84,-23.13 -7.12,-35.9 -2.31,-12.92 -4.25,-24.96 -5.8,-36.07 -1.66,-12.01 -3.07,-23.94 -4.22,-35.76 -1.07,-11.03 -2,-22.98 -2.73,-35.87 -0.65,-11.57 -1.07,-23.49 -1.29,-35.9 -0.17,-12.18 -0.14,-24.28 0.17,-36.27 0.28,-12.6 0.82,-24.76 1.58,-36.38 0.73,-11.73 1.77,-23.88 3.07,-36.46 1.27,-12.24 2.82,-24.51 4.56,-36.78 1.83,-12.83 3.83,-25.09 5.96,-36.86 2.33,-12.83 4.78,-25.07 7.37,-36.69 2.7,-12.21 5.66,-24.5 8.86,-36.8 3.18,-12.24 6.64,-24.51 10.3,-36.78 3.41,-11.34 7.29,-23.47 11.7,-36.52 4.34,-12.71 8.61,-24.73 12.86,-35.9 4.41,-11.62 9.14,-23.38 14.15,-35.17 4.98,-11.85 10.13,-23.38 15.36,-34.61 5.01,-10.75 10.55,-22 16.57,-33.73 5.94,-11.54 11.87,-22.59 17.84,-33.17 6.19,-11.06 12.52,-21.78 18.93,-32.3 6.27,-10.24 13.03,-20.76 20.23,-31.54 6.81,-10.21 13.87,-20.4 21.15,-30.44 7.12,-9.85 14.63,-19.84 22.48,-29.88 8.3,-10.58 16.21,-20.34 23.78,-29.31 7.82,-9.23 16.15,-18.74 25.01,-28.53 8.47,-9.29 17.22,-18.6 26.22,-27.8 8.55,-8.81 17.75,-17.87 27.54,-27.24 9.99,-9.51 19.56,-18.37 28.73,-26.56 9.96,-8.89 19.92,-17.5 29.85,-25.77 9.71,-8.08 19.95,-16.37 30.7,-24.76 10.18,-8.02 20.65,-15.98 31.37,-23.86 10.77,-7.96 21.44,-15.59 32.04,-22.93 11.26,-7.82 22.11,-15.11 32.53,-21.89 9.96,-6.47 21.07,-13.42 33.31,-20.82 12.32,-7.48 23.57,-14.12 33.71,-19.89 10.92,-6.16 22.37,-12.41 34.35,-18.74 10.92,-5.77 22.62,-11.71 35.09,-17.84 12.46,-6.11 24.65,-11.85 36.49,-17.22 11.7,-5.35 24.08,-10.72 37.08,-16.18 12.38,-5.21 25.01,-10.3 37.87,-15.28 14.15,-5.46 26.9,-10.21 38.18,-14.18 11.45,-4.05 24.45,-8.44 38.94,-13.14 13.93,-4.5 27.1,-8.56 39.44,-12.16 12.92,-3.77 26.22,-7.48 39.93,-11.06 13.05,-3.43 26.59,-6.81 40.54,-10.05 13.59,-3.21 27.09,-6.14 40.51,-8.84 13.73,-2.79 27.38,-5.32 40.85,-7.63 13.22,-2.22 27.01,-4.33 41.3,-6.33 14.92,-2.05 28.76,-3.77 41.47,-5.12 14.18,-1.52 28.11,-2.84 41.81,-3.91 13.09,-1.02 27.21,-1.86 42.26,-2.56 13.61,-0.65 27.74,-1.12 42.34,-1.35 14.12,-0.22 28.33,-0.31 42.6,-0.14 14.54,0.14 28.7,0.53 42.43,1.07 15,0.62 29.15,1.43 42.48,2.31 13.98,1.01 28.25,2.22 42.74,3.63 14.09,1.38 28.41,3.01 42.91,4.87 14.82,1.89 29.18,3.91 42.99,6.02 13.59,2.14 28.02,4.59 43.22,7.4 15.39,2.79 29.82,5.65 43.19,8.5 14.43,3.01 28.84,6.3 43.19,9.74 14.21,3.41 28.36,6.98 42.46,10.75 12.8,3.49 26.79,7.46 41.92,11.93 15.05,4.53 28.81,8.81 41.24,12.89 13.17,4.3 26.62,8.97 40.41,13.95 13.76,4.95 26.98,9.9 39.59,14.85 12.01,4.73 25.01,10.13 38.94,16.09 13.42,5.71 26.14,11.42 38.1,16.93 12.91,6.02 25.29,11.99 37.17,17.95 11.23,5.63 23.44,12.04 36.57,19.13l0.03 -0.06c11.39,6.16 23.35,12.94 35.9,20.23 11.48,6.67 23.13,13.76 34.89,21.1 11.57,7.2 22.93,14.6 34.1,22.11 11.59,7.74 22.65,15.44 33.15,22.98 10.72,7.71 21.41,15.67 32.1,23.94 10.83,8.36 21.21,16.6 31.12,24.79 9.96,8.24 19.98,16.8 30.05,25.69 10.07,8.92 19.89,17.83 29.49,26.84 9.15,8.61 18.6,17.76 28.39,27.52l0.03 -0.03c9.14,9.09 18.29,18.46 27.43,28.14 9,9.57 17.81,19.22 26.39,28.87 8.25,9.26 16.68,19.1 25.29,29.46 7.99,9.56 16.09,19.61 24.28,30.13 8.64,11.06 16.4,21.3 23.24,30.67 7.23,9.85 14.57,20.29 22.06,31.23 7.01,10.27 13.95,20.82 20.76,31.54 6.84,10.75 13.37,21.44 19.61,32.04 6.67,11.31 12.86,22.2 18.54,32.61 5.77,10.55 11.54,21.58 17.27,32.97l0 0.06c5.57,11.08 10.95,22.28 16.15,33.62 5.32,11.45 10.3,22.79 14.94,33.79 4.87,11.54 9.45,23.04 13.78,34.38 4.08,10.72 8.27,22.37 12.55,34.83 4.3,12.58 8.1,24.34 11.37,35.28 3.46,11.51 6.75,23.29 9.85,35.37 3.07,11.9 5.91,23.8 8.47,35.67 2.42,11.23 4.76,23.19 6.98,35.9 2.28,12.97 4.16,25.04 5.65,36.21 1.63,12.1 3.01,24.08 4.14,35.96 1.07,11.26 1.94,23.35 2.62,36.24 0.65,11.73 1.04,23.86 1.21,36.41 0.17,12.12 0.11,24.22 -0.2,36.24 -0.34,12.63 -0.87,24.79 -1.63,36.41 -0.79,11.73 -1.83,23.89 -3.15,36.44 -1.3,12.27 -2.81,24.53 -4.59,36.8 -1.83,12.83 -3.85,25.13 -5.99,36.86 -2.36,12.89 -4.81,25.07 -7.4,36.69 -2.7,12.19 -5.66,24.45 -8.87,36.72 -3.18,12.29 -6.64,24.56 -10.3,36.8 -3.38,11.28 -7.26,23.38 -11.65,36.29 -4.3,12.74 -8.58,24.65 -12.8,35.73 -4.42,11.62 -9.12,23.32 -14.09,35.11 -4.98,11.82 -10.08,23.27 -15.31,34.5 -4.98,10.69 -10.49,21.89 -16.49,33.62 -5.63,10.95 -11.57,22 -17.78,33.06 -6.22,11.09 -12.55,21.89 -18.94,32.33 -6.81,11.17 -13.48,21.67 -20.03,31.51 -6.92,10.41 -14.07,20.73 -21.41,30.95 -7.6,10.55 -15.13,20.65 -22.59,30.25 -7.06,9.09 -15,18.91 -23.77,29.34 -8.44,10.05 -16.77,19.64 -24.99,28.73 -8.41,9.34 -17.13,18.65 -26.11,27.88 -9.12,9.4 -18.2,18.46 -27.26,27.18 -9.12,8.72 -18.6,17.52 -28.41,26.28 -9.79,8.78 -19.64,17.27 -29.46,25.49 -9.65,8.02 -19.78,16.18 -30.39,24.48 -10.18,7.93 -20.62,15.87 -31.26,23.69 -10.77,7.88 -21.46,15.47 -32.04,22.79 -10.61,7.29 -21.55,14.57 -32.81,21.77 -11.17,7.2 -22.37,14.18 -33.54,20.93 -11.4,6.84 -22.82,13.48 -34.19,19.86 -12.43,7.01 -24.14,13.33 -35.06,19.07 -11.84,6.16 -23.72,12.16 -35.53,17.89l-0.03 -0.03c-11.51,5.54 -23.35,11.08 -35.54,16.54 -12.86,5.77 -25.01,11.06 -36.44,15.78 -12.21,5.03 -24.65,9.96 -37.34,14.82 -12.8,4.84 -25.52,9.51 -38.07,13.9 -12.91,4.47 -25.91,8.81 -38.94,13 -12.63,4.02 -25.91,8.02 -39.81,12.07 -13.19,3.8 -26.73,7.54 -40.6,11.2 -14.23,3.72 -28,7.15 -41.24,10.24 -13.87,3.26 -27.69,6.3 -41.44,9.14 -13.87,2.79 -27.66,5.43 -41.36,7.82 -13.14,2.28 -26.92,4.47 -41.39,6.53 -13.48,1.91 -27.26,3.71 -41.39,5.26zm-662.76 -182.26l0 0c6.05,3.26 12.21,6.55 18.46,9.76 5.82,3.04 11.98,6.14 18.4,9.31 5.52,2.73 11.68,5.63 18.43,8.75 5.35,2.51 11.65,5.29 18.85,8.44 7.91,3.43 14.3,6.16 19.19,8.19 5.82,2.36 12.18,4.9 19.19,7.6 6.61,2.5 13.17,4.98 19.67,7.26 7.09,2.56 13.59,4.84 19.5,6.78 6.92,2.34 13.53,4.5 19.86,6.45 5.94,1.83 12.61,3.8 20,5.93 5.83,1.69 12.55,3.52 20.17,5.49 6.14,1.66 12.94,3.35 20.4,5.09l23.97 5.55 11.93 2.42 12.29 2.39 12.01 2.22 12.27 2.08 12.38 1.97 12.21 1.83 12.52 1.6 12.47 1.55 12.55 1.35 12.66 1.3 12.46 1.07 12.55 0.9 12.88 0.84 13.06 0.76c11.62,0.28 23.13,0.39 34.5,0.37 11.19,-0.09 22.7,-0.31 34.52,-0.79 10.61,-0.37 22,-1.01 34.13,-1.86 11.37,-0.78 22.71,-1.74 33.93,-2.92 10.95,-1.1 22.14,-2.45 33.56,-4.05 11.4,-1.55 22.42,-3.23 33.03,-5.04 11,-1.89 21.92,-3.97 32.66,-6.19 10.19,-2.08 20.99,-4.53 32.33,-7.32 11.17,-2.67 21.8,-5.46 31.88,-8.27 10.58,-2.98 21.1,-6.11 31.54,-9.46 11.14,-3.54 21.55,-7.03 31.23,-10.47 9.45,-3.38 19.78,-7.29 30.89,-11.7 10.1,-4.02 20.28,-8.27 30.55,-12.74 11.17,-4.9 21.24,-9.48 30.22,-13.76 9.51,-4.59 19.44,-9.54 29.77,-14.94 10.08,-5.21 19.89,-10.58 29.49,-16.01 10.13,-5.68 19.67,-11.28 28.64,-16.71 8.47,-5.12 17.84,-11.06 28.08,-17.7 9.76,-6.3 18.91,-12.43 27.46,-18.37 8.38,-5.82 17.27,-12.21 26.59,-19.1 9.59,-7.09 18.26,-13.73 26,-19.87 8.1,-6.44 16.54,-13.28 25.24,-20.68 8.41,-7.06 16.57,-14.18 24.51,-21.33 7.88,-7.12 15.81,-14.49 23.8,-22.14 8.1,-7.82 15.78,-15.42 23.01,-22.79 7.65,-7.82 15.08,-15.64 22.28,-23.49 7.17,-7.82 14.41,-15.98 21.69,-24.45 6.75,-7.82 13.79,-16.26 21.13,-25.35 7.26,-8.92 14.13,-17.7 20.62,-26.25 7.29,-9.54 13.93,-18.54 19.92,-26.89 6.36,-8.87 12.81,-18.2 19.33,-27.91 6.81,-10.13 13.05,-19.69 18.73,-28.72 2.56,-4.05 5.57,-8.92 9.09,-14.69 2.48,-4.05 5.54,-9.17 9.09,-15.25 3.09,-5.23 6.05,-10.35 8.89,-15.33l0 -0.03c2.87,-5.09 5.68,-10.13 8.38,-15.1 3.49,-6.3 6.3,-11.57 8.41,-15.53 2.48,-4.78 5.09,-9.85 7.82,-15.28 2.31,-4.61 4.84,-9.82 7.57,-15.47 3.21,-6.75 5.68,-11.96 7.4,-15.72 1.92,-4.16 4.16,-9.29 6.84,-15.42 2.45,-5.6 4.73,-10.92 6.87,-16.09 1.66,-3.97 3.8,-9.26 6.39,-15.84 2.48,-6.24 4.56,-11.62 6.25,-16.18 2.25,-5.99 4.25,-11.42 5.91,-16.09 1.24,-3.51 3.15,-9 5.63,-16.4 1.97,-5.94 3.8,-11.45 5.43,-16.57l0 -0.08c1.89,-5.88 3.6,-11.45 5.15,-16.57 1.6,-5.43 3.18,-10.86 4.67,-16.21 1.49,-5.29 2.98,-10.78 4.45,-16.32 1.4,-5.37 2.79,-10.86 4.16,-16.46 1.8,-7.31 3.07,-12.63 3.91,-16.29 1.07,-4.7 2.25,-10.1 3.54,-16.26 0.96,-4.61 2.08,-10.16 3.32,-16.6 1.41,-7.17 2.45,-12.74 3.15,-16.6 0.68,-3.86 1.63,-9.48 2.79,-16.66 1.18,-7.06 2.05,-12.74 2.7,-17.08 0.53,-3.52 1.32,-9.4 2.39,-17.36 0.96,-7.26 1.69,-13 2.22,-17.47 0.82,-6.92 1.46,-12.55 1.94,-17.02l1.6 -17.08c0.62,-6.67 1.13,-12.47 1.49,-17.45l1.29 -17.61c0.42,-6.45 0.76,-12.19 1.04,-17.25l0.03 -0.79c0.39,-12.01 0.59,-23.91 0.59,-35.65 0.03,-11.87 -0.14,-23.83 -0.45,-35.96 -0.31,-11.42 -0.81,-23.21 -1.49,-35.45 -0.62,-11 -1.46,-22.7 -2.56,-35.23 -1.04,-12.24 -2.22,-23.83 -3.49,-34.69 -1.38,-11.7 -2.87,-23.1 -4.53,-34.1 -1.63,-11.08 -3.49,-22.28 -5.54,-33.62 -1.97,-10.78 -4.19,-21.92 -6.64,-33.37 -2.53,-11.76 -5.06,-22.76 -7.6,-32.89 -2.39,-9.65 -5.32,-20.48 -8.78,-32.61 -3.1,-10.92 -6.36,-21.64 -9.74,-32.19 -3.63,-11.37 -7.2,-21.89 -10.64,-31.48 -3.57,-9.99 -7.48,-20.34 -11.76,-31.12 -4.08,-10.27 -8.33,-20.48 -12.74,-30.64 -4.47,-10.24 -9.06,-20.28 -13.73,-30.11 -4.67,-9.76 -9.62,-19.64 -14.8,-29.6 -5.55,-10.72 -10.81,-20.48 -15.81,-29.46 -4.98,-8.89 -10.55,-18.51 -16.74,-28.78 -6.19,-10.3 -12.01,-19.69 -17.47,-28.22 -5.82,-9.03 -11.93,-18.2 -18.29,-27.38 -6.27,-9.15 -12.63,-18.04 -19.02,-26.73 -5.91,-7.99 -12.55,-16.65 -19.92,-26.02 -7.2,-9.17 -14.07,-17.64 -20.59,-25.38 -6.64,-7.91 -13.76,-16.09 -21.33,-24.51 -7.23,-8.07 -14.6,-15.98 -22.06,-23.8 -7.99,-8.33 -15.56,-15.98 -22.7,-22.96 -7.17,-7.03 -15.05,-14.46 -23.6,-22.31 -7.94,-7.29 -16.06,-14.49 -24.37,-21.63 -7.91,-6.78 -16.29,-13.76 -25.12,-20.88 -8.69,-6.98 -17.33,-13.76 -25.89,-20.23 -9.45,-7.15 -18.32,-13.64 -26.59,-19.47 -8.61,-6.08 -17.73,-12.35 -27.35,-18.68 -5.32,-3.54 -11.29,-7.34 -17.84,-11.5 -6.58,-4.14 -12.58,-7.88 -17.95,-11.09 -6.42,-3.83 -12.49,-7.4 -18.15,-10.64 -6.24,-3.57 -12.32,-6.95 -18.17,-10.16 -5.99,-3.23 -12.12,-6.5 -18.43,-9.71 -5.83,-3.04 -12.07,-6.14 -18.68,-9.34 -6.44,-3.18 -12.69,-6.13 -18.68,-8.83 -5.43,-2.53 -11.76,-5.32 -18.99,-8.47 -5.97,-2.59 -12.3,-5.21 -18.96,-7.94 -6.78,-2.73 -13.2,-5.26 -19.22,-7.6 -7.2,-2.73 -13.71,-5.12 -19.41,-7.15 -5.18,-1.89 -11.73,-4.08 -19.61,-6.7l-0.08 0c-9,-3.01 -15.67,-5.18 -19.98,-6.53l-0.03 0.11c-8.5,-2.67 -15.08,-4.62 -19.78,-5.96 -6.36,-1.83 -13.08,-3.63 -20.14,-5.46 -5.66,-1.49 -12.55,-3.21 -20.68,-5.18l-12.24 -2.84 -11.93 -2.67 -11.99 -2.53 -12.07 -2.36 -12.12 -2.28 -12.02 -2.05 -12.21 -1.97 -12.01 -1.86 -12.52 -1.69 -12.35 -1.6 -12.52 -1.35 -12.66 -1.35 -12.55 -1.15 -12.74 -0.9 -12.97 -0.9 -13.11 -0.79c-11.54,-0.17 -23.07,-0.2 -34.55,-0.03 -11.09,0.14 -22.59,0.48 -34.52,1.01 -10.49,0.42 -21.86,1.15 -34.1,2.05 -11.45,0.87 -22.82,1.91 -33.99,3.12 -12.21,1.32 -23.38,2.67 -33.46,4.08 -10.33,1.49 -21.38,3.21 -33.14,5.26 -10.67,1.86 -21.55,3.94 -32.61,6.27 -10.5,2.17 -21.27,4.59 -32.33,7.32l-0.03 -0.06c-10.05,2.42 -20.76,5.26 -32.16,8.41 -10.66,3.01 -21.24,6.14 -31.71,9.48 -10.07,3.15 -20.51,6.67 -31.32,10.47 -11.17,4 -21.49,7.79 -30.98,11.54 -10.02,3.94 -20.15,8.13 -30.33,12.55 -10.05,4.3 -20.09,8.86 -30.08,13.61 -9.91,4.67 -19.75,9.54 -29.46,14.61 -10.58,5.46 -20.26,10.64 -28.98,15.53 -8.22,4.59 -17.64,10.13 -28.25,16.49 -9.51,5.77 -18.82,11.59 -27.94,17.5 -9.74,6.3 -18.82,12.35 -27.32,18.23 -8.41,5.83 -17.27,12.24 -26.62,19.13 -9.57,7.09 -18.26,13.73 -26.02,19.86 -8.16,6.47 -16.63,13.42 -25.38,20.79 -8.5,7.2 -16.74,14.41 -24.76,21.58 -7.94,7.17 -15.95,14.63 -24,22.37 -8.1,7.76 -15.78,15.39 -22.99,22.7 -7.65,7.85 -15.11,15.75 -22.31,23.6 -7.17,7.82 -14.4,15.93 -21.69,24.37 -6.72,7.82 -13.78,16.32 -21.13,25.38 -7.26,8.98 -14.15,17.73 -20.68,26.31 -7.26,9.56 -13.9,18.54 -19.89,26.92 -6.36,8.86 -12.81,18.17 -19.33,27.91 -6.81,10.08 -13.02,19.67 -18.74,28.64 -2.56,4.08 -5.62,9.06 -9.17,14.88 -2.45,4 -5.46,9.06 -9,15.05 -2.98,5.06 -5.91,10.13 -8.72,15.08 -2.23,3.94 -5.07,9.03 -8.53,15.39 -4.08,7.43 -6.89,12.69 -8.41,15.59 -2.53,4.75 -5.12,9.87 -7.85,15.28 -2.31,4.64 -4.87,9.79 -7.6,15.53 -2.08,4.39 -4.53,9.56 -7.29,15.64l-0.06 0.06c-2.31,5.04 -4.59,10.16 -6.86,15.36l0 0.06c-1.72,3.94 -4,9.37 -6.76,16.01l-0.08 0c-1.66,4.02 -3.83,9.34 -6.42,15.87 -2.45,6.25 -4.53,11.65 -6.22,16.12 -2.28,6.08 -4.25,11.45 -5.91,16.15 -1.27,3.52 -3.13,9 -5.63,16.4 -1.74,5.21 -3.57,10.77 -5.46,16.68 -1.63,5.15 -3.35,10.66 -5.12,16.57 -1.63,5.46 -3.21,10.89 -4.73,16.26 -1.46,5.32 -2.95,10.72 -4.39,16.26 -1.41,5.35 -2.82,10.89 -4.19,16.52 -1.91,7.71 -3.21,13.14 -3.88,16.15l0 0.03c-1.07,4.73 -2.25,10.16 -3.54,16.32 -0.96,4.56 -2.08,10.05 -3.35,16.54 -1.38,7.26 -2.42,12.74 -3.12,16.63 -0.7,3.88 -1.63,9.51 -2.81,16.68 -1.15,7.12 -2.08,12.83 -2.7,17.16 -0.53,3.6 -1.32,9.23 -2.39,17.22 -0.93,7.09 -1.69,12.97 -2.22,17.5 -0.84,7.04 -1.49,12.78 -1.92,16.96l-1.63 16.97 -1.49 17.61c-0.5,6.45 -0.93,12.32 -1.27,17.58l-1.07 17.36c-0.4,12.24 -0.62,24.31 -0.65,36.16 -0.03,11.9 0.09,23.88 0.4,35.96 0.31,11.36 0.79,23.13 1.49,35.36 0.62,10.95 1.46,22.65 2.53,35.11 1.07,12.21 2.25,23.78 3.55,34.66 1.35,11.45 2.87,22.82 4.56,34.02 1.66,11.08 3.55,22.28 5.63,33.59 1.97,10.72 4.22,21.86 6.73,33.31 2.56,11.73 5.12,22.68 7.68,32.84 2.79,11 5.71,21.78 8.75,32.33 3.12,10.75 6.39,21.44 9.82,31.99 3.26,9.93 6.89,20.54 10.98,31.68 4.08,11.31 8.05,21.75 11.9,31.32 3.85,9.62 8.22,19.92 13.08,30.95 4.34,9.85 9.03,20.06 14.07,30.5 5.34,11.14 10.35,21.16 14.99,30.05 5.26,10.05 10.64,19.95 16.09,29.71 4.98,8.92 10.61,18.57 16.88,29.01 6.19,10.36 12.04,19.78 17.5,28.28l0.09 0c6.24,9.79 12.32,18.96 18.2,27.52 5.83,8.5 12.13,17.36 18.91,26.59 7.03,9.65 13.56,18.29 19.47,25.83 5.77,7.37 12.52,15.67 20.23,24.87 7.06,8.47 14.04,16.6 20.96,24.31 7.32,8.22 14.6,16.15 21.8,23.66 7.2,7.6 14.77,15.28 22.7,23.07 7.96,7.85 15.81,15.31 23.49,22.34 7.91,7.32 15.95,14.49 24.14,21.55 8.64,7.48 16.96,14.4 24.96,20.85l0.03 -0.03c8.67,7.01 17.27,13.76 25.83,20.23 9.43,7.15 18.29,13.62 26.53,19.47 8.64,6.11 17.75,12.35 27.4,18.76 5.24,3.46 11.11,7.26 17.64,11.4 5.55,3.49 11.59,7.23 18.09,11.14 6.53,3.94 12.6,7.51 18.15,10.72 6.19,3.54 12.24,6.95 18.09,10.16z"/>
  <path class="fil0" d="M9116.52 3155.88c0.17,147.49 158.09,255.19 305.89,178.21 18.2,-9.48 39.67,-26.95 50.31,-38.71 14.49,-16.06 24.76,-30.27 36.52,-53.6 21.19,-42.09 25.38,-99.85 8.75,-148.05 -13.48,-39.08 -41.03,-80.69 -65.33,-113.67 -43.02,-58.35 -99.77,-137.98 -123.54,-210.82 -1.63,-4.98 -3.69,-13.87 -6.72,-16.83l-10.5 28.31c-15.53,35.79 -16.82,40.23 -36.86,77.12 -14.54,26.73 -42.26,66.93 -60.41,91.55 -18.46,25.07 -47.38,64.88 -61.84,90.06 -18.88,32.86 -36.29,70 -36.27,116.42z"/>
  <path class="fil0" d="M9161.93 2255.13c11.09,18.48 23.38,36.18 34.95,51.85 41.5,56.27 96.25,133.03 119.18,203.33 1.58,4.84 3.55,13.37 6.5,16.18l10.13 -27.26c14.97,-34.52 16.21,-38.79 35.57,-74.33 14.01,-25.83 40.77,-64.65 58.24,-88.35 16.46,-22.37 41.58,-56.92 56.3,-81.17 -47.91,25.01 -102.41,39.19 -160.23,39.19 -57.96,0 -112.6,-14.26 -160.63,-39.44z"/>
  <path class="fil0" d="M13966.37 505.48l114.96 -227.39c-66.85,-34.35 -146.92,-60.77 -216.59,-82.38 -567.6,-175.87 -1933.35,-234.42 -2376.9,294.44 -71.13,84.83 -98.75,187.46 -98.75,297.02 0,106.69 28.64,204.04 102.75,282.87 75.97,85.98 177.68,144.84 283.72,185.75 132.6,55.62 274.18,93.55 414.49,122.16 161.44,32.95 323.78,61.73 486.54,87.3 151.9,23.94 303.52,49.83 454.33,79.93 142.56,28.45 284.87,62.43 422.82,108.72 124.27,41.61 245.42,94.14 355.86,165.27 1259.2,810.83 -1041.6,2127.2 -2177.42,971 -119.66,-121.82 -204.54,-264.95 -243.6,-429.93l-380.64 305.27c27.35,34.15 61.39,67.81 92.14,97.8 62.86,61.42 138.15,115.75 211.18,164.26 107.9,71.6 226.26,129.96 346.57,178.27 637.32,272.1 1813.32,291.51 2394.63,-48.51 376.11,-219.99 582.29,-712.22 295.45,-1070.15 -91.19,-113.75 -208.45,-196.38 -340.72,-256.03 -152.69,-68.96 -316.83,-116 -480.24,-151.54 -182.09,-39.56 -365.82,-70.93 -550.11,-98.17 -165.44,-24.48 -329.83,-54.5 -493.72,-87.78 -145.15,-29.46 -289.54,-69.49 -426.14,-127.31 -116.14,-49.18 -223.17,-116.96 -306.98,-212.2 -85.22,-96.81 -118.93,-214.22 -118.93,-342.01 0,-826.59 1828.63,-707.32 2235.29,-206.65z"/>
  <path class="fil0" d="M3082.37 5017.06c-37.08,16.34 -78.64,24.11 -119.91,24.11 -72.68,0 -136.37,-24.87 -181.7,-67.27 -44.93,-42.03 -71.91,-101.29 -71.91,-170.61 0,-69.64 27.07,-128.69 71.91,-170.56 45.63,-42.54 109.67,-67.3 182.34,-67.3 43.61,0 82.63,8.64 115.72,22.73 37.39,15.95 67.38,39 87.98,64.51l6.13 7.6 -57.82 40.85 -5.43 -6.61c-15.95,-19.53 -37.28,-34.83 -61.96,-45.24 -25.24,-10.67 -54.16,-16.29 -84.63,-16.29 -52.9,0 -98.95,17.7 -131.48,48.2 -31.79,29.74 -50.84,72.05 -50.84,122.11 0,49.97 18.77,92.53 50.76,122.5 32.16,30.19 77.91,47.83 131.56,47.83 31.43,0 61.17,-5.96 87.02,-17.36 25.24,-11.08 46.98,-27.4 63.19,-48.34l5.46 -7.01 57.09 40.85 -5.77 7.51c-22.98,30.24 -53.51,52.69 -87.73,67.78zm894.87 -42.79l0 0c-46.34,42.23 -111.53,66.91 -186.46,66.91 -74.58,0 -139.66,-24.7 -185.97,-66.99 -45.92,-41.98 -73.32,-101.29 -73.32,-170.89 0,-69.64 27.41,-128.83 73.32,-170.84 46.31,-42.34 111.39,-67.02 185.97,-67.02 74.9,0 140.11,24.65 186.46,66.93 46.05,41.98 73.46,101.29 73.46,170.92 0,69.72 -27.43,128.97 -73.46,170.98zm-322.15 -48.17l0 0c32.92,30.11 80.02,47.52 135.7,47.52 55.6,0 102.61,-17.56 135.56,-47.66 32.69,-29.85 51.8,-72.45 51.8,-122.67 0,-50.53 -18.94,-93.07 -51.57,-122.89 -32.86,-29.99 -79.88,-47.41 -135.78,-47.41 -55.6,0 -102.58,17.58 -135.55,47.63 -32.72,29.91 -51.8,72.45 -51.8,122.67 0,50.47 19.02,92.99 51.66,122.81zm1129.32 -14.66l0 0 0 -337.79 70.06 0 0 459.34 -60.18 0 -272.44 -338.44 0 338.44 -70.05 0 0 -459.34 60.8 0 271.81 337.79zm845.27 105.62l0 0c-37.09,16.34 -78.64,24.11 -119.88,24.11 -72.7,0 -136.38,-24.87 -181.73,-67.27 -44.93,-42.03 -71.88,-101.29 -71.88,-170.61 0,-69.64 27.04,-128.69 71.88,-170.56 45.64,-42.54 109.67,-67.3 182.37,-67.3 43.61,0 82.61,8.64 115.72,22.73 37.39,15.95 67.35,39 87.95,64.51l6.16 7.6 -57.84 40.85 -5.43 -6.61c-15.92,-19.53 -37.28,-34.83 -61.93,-45.24 -25.27,-10.67 -54.16,-16.29 -84.63,-16.29 -52.9,0 -98.98,17.7 -131.51,48.2 -31.79,29.74 -50.81,72.05 -50.81,122.11 0,49.97 18.77,92.53 50.76,122.5 32.16,30.19 77.91,47.83 131.56,47.83 31.43,0 61.14,-5.96 87.02,-17.36 25.24,-11.08 46.98,-27.4 63.19,-48.34l5.46 -7.01 57.06 40.85 -5.74 7.51c-23.01,30.24 -53.51,52.69 -87.75,67.78zm561.44 -183.13l0 0 0 132.15 284.73 0 0 66.9 -354.79 0 0 -459.34 349.14 0 0 66.91 -279.08 0 0 127.11 267.71 0 0 66.26 -267.71 0zm695.03 -260.28l0 0 176.35 0c54.84,0 99.35,15.08 130.44,41.13 32.3,27.13 50.14,65.84 50.14,111.7 0,45.49 -17.86,84.13 -50.19,111.14 -31.15,25.91 -75.63,41.02 -130.38,41.02l-115.52 0 0 154.35 -70.05 0 0 -459.34 9.23 0zm60.83 237.44l0 0 115.52 0c35.03,0 62.55,-7.96 81.06,-22.68 17.86,-14.23 27.54,-35.31 27.54,-61.93 0,-27.01 -9.65,-48.17 -27.52,-62.55 -18.45,-14.8 -46,-22.73 -81.09,-22.73l-115.52 0 0 169.88zm657.22 -237.44l0 0 397.27 0 0 66.91 -168.22 0 0 392.43 -70.06 0 0 -392.43 -168.19 0 0 -66.91 9.2 0zm1461.4 345.08l0 0 127.34 114.26 -101.18 0 -72.87 -65.13 -27.23 28.25c-13.28,14.04 -30.75,25.66 -51.54,33.59 -19.22,7.29 -41.42,11.48 -65.98,11.48 -42.91,0 -80.47,-12.83 -107.17,-35.26 -26.61,-22.31 -42.51,-53.96 -42.51,-91.72 0,-21.27 4.92,-41.3 14.26,-59.11 9.31,-17.86 23.1,-33.51 40.65,-46.05l34.64 -24.7 -27.85 -24.51c-11.99,-10.69 -20.51,-22.96 -26.14,-35.85 -6.33,-14.43 -9.09,-29.62 -9.09,-44.12 0,-32.97 14.4,-61.7 38.27,-82.15 23.57,-20.2 56.47,-32.27 93.74,-32.27 36.32,0 68.68,11.68 91.83,31.48 23.04,19.84 37.09,47.69 37.09,80.41 0,17.53 -4.16,34.27 -11.88,49.18 -7.74,14.83 -19.13,27.97 -33.51,38.27l-39.33 28.62 86.99 78.38 85.95 -90.34 54.73 43.61 -89.22 93.69zm-140.42 -272.88l0 0c-9.93,-8.22 -24.5,-12.86 -42.23,-12.86 -18.2,0 -33.68,4.87 -44.34,13.53 -9.88,8.02 -15.73,19.44 -15.73,33.34 0,6.5 1.3,12.66 3.83,18.23 2.53,5.63 6.33,10.75 11.34,15.19l36.69 32.92 46.34 -33.48c6.33,-4.42 11.17,-9.54 14.3,-15.31 2.95,-5.4 4.53,-11.73 4.53,-18.85 0,-13.7 -5.35,-24.99 -14.72,-32.72zm-13.61 321.84l0 0c10.86,-3.83 19.86,-9.43 26.5,-16.37l28.73 -30.27 -99.57 -88.37 -43.21 30.47c-8.87,6.08 -15.59,13.59 -20.09,22.11 -4.5,8.53 -6.86,18.4 -6.86,28.95 0,17.98 7.06,32.72 19.75,42.94 13.14,10.52 32.53,16.49 56.72,16.49 14.41,0 27.21,-2.08 38.04,-5.94zm1334.4 36.97l0 0c-33.59,23.21 -81.51,36.52 -139.69,36.52 -36.58,0 -72.73,-6.11 -105.03,-15.08 -39.98,-11.17 -74.28,-26.87 -96.45,-41.19l-7.45 -4.84 35.9 -60.66 8.05 5.4c21.98,14.74 48.84,27.26 78.24,35.96 27.6,8.1 57.43,12.86 87.39,12.86 37.7,0 69.72,-6.58 91.55,-19.5 19.05,-11.29 30.24,-27.66 30.24,-48.76 0,-45.52 -56.07,-54.92 -111.44,-64.17l-17.58 -2.96c-69.97,-12.52 -115.86,-26.7 -144.59,-46.34 -30.45,-20.79 -41.98,-47.15 -41.98,-83.08 0,-49.01 21.64,-82.89 53.91,-105.45 40.01,-27.94 96.42,-37.92 147.43,-37.92 31.09,0 60.89,3.8 88.8,10.83 28.98,7.29 56.07,18.09 80.75,31.96l8.1 4.5 -34.38 59.31 -7.85 -4.33c-21.61,-11.82 -43.3,-20.6 -65.75,-26.28 -22.45,-5.71 -45.86,-8.44 -70.93,-8.44 -42.54,0 -75.04,7.09 -96.73,20 -20.68,12.3 -31.37,30.3 -31.37,52.7 0,16.96 5.88,29.18 22.85,38.71 19.36,10.92 52.33,19.1 104.75,27.15l4.11 0.59c68.42,10.67 183.89,28.5 183.89,131.98 0,41.53 -19.64,76.28 -54.72,100.53zm470.68 -431l0 0 176.38 0c54.81,0 99.34,15.08 130.43,41.13 32.3,27.13 50.11,65.84 50.11,111.7 0,45.49 -17.84,84.13 -50.2,111.14 -31.14,25.91 -75.6,41.02 -130.35,41.02l-115.53 0 0 154.35 -70.05 0 0 -459.34 9.2 0zm60.85 237.44l0 0 115.53 0c35,0 62.55,-7.96 81.06,-22.68 17.84,-14.23 27.52,-35.31 27.52,-61.93 0,-27.01 -9.65,-48.17 -27.49,-62.55 -18.46,-14.8 -46,-22.73 -81.09,-22.73l-115.53 0 0 169.88zm1081.8 221.9l0 0 -63.25 0 -55.43 -122.84 -227.53 0 -54.78 122.84 -78.21 0c70.42,-153.06 141.18,-306.11 211.27,-459.34l71.58 0c70.62,152.86 140.48,306.22 210.68,459.34l-14.32 0zm-232.42 -376.05l0 0 -83.51 186.96 167.57 0 -84.07 -186.96z"/>
 </g>
</svg>
